<svg xmlns="http://www.w3.org/2000/svg" style="isolation:isolate" viewBox="0 0 300 200" width="400" height="200pt"><defs><clipPath id="a"><path d="M0 0h300v200H0z"/></clipPath></defs><g clip-path="url(#a)"><path d="M4.095 90.315q-.341.108-.577.162-.236.054-.393.054-.891-.108-1.258-1.054-.367-.945-.367-3.161 0-4.377 2.044-5.511 1.809-.865 3.88-1.27 2.07-.405 4.613-.405 3.407 0 6.776 1.351 3.368 1.35 6.421 3.701 3.054 2.35 5.675 5.565 2.621 3.216 4.548 6.971 1.926 3.755 3.014 7.889 1.088 4.134 1.088 8.294 0 4.215-1.376 8.024-1.376 3.81-3.709 6.728-2.333 2.918-5.4 4.647-3.066 1.729-6.421 1.729-2.674 0-5.584-1.027-2.909-1.026-6.421-3.296-1.625-.919-1.625-4.107 0-.702.157-1.296.157-.595.328-1.135.17-.54.327-1.054.157-.513.157-1.053 0-3.08-.144-6.593-.144-3.512-.393-7.024-.249-3.512-.577-6.728-.327-3.215-.668-5.7-.341-2.486-.695-3.972-.353-1.486-.642-1.486-.445 0-1.087.216-.643.217-1.691.541Z" fill="red"/><path d="M14.186 89.45q-.76 0-.76 1.081 0 .27.079.919.078.648.236 2.053.236 2.269.445 4.863.21 2.594.42 5.809.209 3.215.406 7.186.196 3.972.406 8.943.026.811.708 1.54.681.729 1.808 1.297 1.128.567 2.582.918 1.455.352 3.001.352 2.045 0 3.919-1t3.303-2.675q1.428-1.675 2.28-3.89.852-2.216.852-4.593 0-3.945-1.507-7.673t-4.155-6.781q-2.647-3.053-6.238-5.242-3.591-2.188-7.785-3.107Z" fill="#FFF"/><path d="M58.09 84.371q1.442 0 2.779.919 1.336.918 2.359 2.539 1.022 1.621 1.638 3.891.616 2.269.616 5.025 0 1.135-.249 2.188-.249 1.054-.669 1.838-.419.783-.956 1.242-.538.46-1.114.46-.053 0-.092.027t-.092.027q-.052.054-.105.054l.105 4.322q.105 7.727 1.062 11.294.956 3.566 2.503 3.566.55 0 .983-.216.432-.216.812-.513.38-.298.721-.514.341-.216.682-.216.603 0 1.061 1.081.459 1.08.459 2.593t-.564 3.026q-.563 1.513-1.481 2.729-.917 1.216-2.07 1.972-1.154.757-2.333.757-2.045 0-3.591-3.485-1.546-3.486-2.202-10.24-.157-1.081-.419-1.081-.315 0-.551.649-2.594 6.754-5.53 10.131-2.936 3.377-5.793 3.377-1.337 0-2.411-.81-1.075-.811-1.822-2.297-.747-1.486-1.153-3.62-.407-2.134-.407-4.782 0-3.728.8-7.835.799-4.107 2.162-8.105 1.363-3.999 3.159-7.619 1.795-3.62 3.774-6.376 1.979-2.756 4.024-4.377 2.044-1.621 3.905-1.621Z" fill="#FF0"/><path d="M57.225 103.067q.472-1.837.865-2.675.393-.837 1.127-1.107.577-.163.577-.757 0-.432-.157-.918-.498-1.405-1.049-2.459-.55-1.054-1.468-1.054-.996 0-2.228 1.189-1.232 1.189-2.503 3.161-1.271 1.972-2.49 4.485-1.219 2.513-2.162 5.16-.944 2.648-1.521 5.242-.576 2.593-.576 4.647 0 1.837.485 2.863.485 1.027 1.323 1.027 2.15 0 4.692-4.701 2.543-4.701 5.085-14.103Z" fill="#FFF"/><path d="M71.877 87.991q0-.81.341-1.594.341-.783.891-1.405.551-.621 1.245-1.026.695-.405 1.403-.405.393 0 .668.432t.485 1.648q.21 1.216.38 3.404.17 2.188.328 5.701.104 1.08.196 1.648.092.567.249.567.236 0 .472-1.675 1.913-11.401 5.531-11.401 1.677 0 3.053 2.161t2.569 7.052q1.192 4.89 2.267 12.86t2.149 19.641q.053.595.079 1.081.026.486.026.919 0 1.242-.275 2.134-.275.892-.721 1.459-.445.567-.996.865-.55.297-1.101.297-1.101 0-1.585-.487-.485-.486-.616-1.837-.761-8.213-1.481-14.589-.721-6.376-1.416-10.726-.694-4.35-1.376-6.619-.681-2.27-1.363-2.27-.681 0-1.271 1.756-.59 1.757-1.14 5.485-.551 3.728-1.062 9.456t-.983 13.671q-.131 2.161-1.048 3.458-.918 1.297-2.333 1.297-.944 0-1.442-.811-.498-.81-.55-2.215-.236-11.239-.511-18.507-.275-7.268-.511-11.671-.236-4.404-.393-6.566-.158-2.161-.158-3.188Z" fill="#0F0"/><path d="M100.447 69.187q0-2.864.786-4.025.786-1.162 2.595-1.162.655 0 1.114.243.458.243.786.892.328.648.524 1.702.197 1.053.328 2.675.315 5.025.695 10.374.38 5.35.799 10.753.157 2.432 1.232 2.432.288 0 .957-.135l1.585-.325q.918-.189 1.979-.405 1.062-.216 2.124-.405 1.061-.189 2.018-.324.956-.136 1.69-.136.577 0 .918.46.341.459.537 1.189.197.729.262 1.621.066.891.066 1.81 0 .81-.144 1.675-.145.864-.394 1.54-.249.675-.616 1.108-.366.432-.838.432-2.281 0-4.6.297-2.32.297-4.627.783-1.179.325-1.179 2.432 0 .162.026.405.026.243.026.406l.59 8.807q.275 4.107.472 7.322.196 3.215.314 5.349.118 2.135.118 2.837 0 1.945-.183 3.269-.184 1.324-.603 2.162-.419.837-1.114 1.188-.695.352-1.743.352-.996 0-1.468-.973t-.524-2.972q-.157-6.376-.498-12.833-.341-6.457-.786-12.887-.236-2.324-1.18-2.324-.079 0-.183.054-.105.054-.184.054-1.625.757-3.067 1.513-1.441.757-2.699 1.621-.708.486-1.259.676-.55.189-.996.189-.602 0-.891-1.108-.288-1.108-.288-2.783 0-.594.052-1.378.053-.783.197-1.567.144-.783.419-1.459.275-.675.747-1.107 1.101-.919 2.936-1.919 1.835-.999 4.141-1.864.525-.27.826-.891.301-.622.301-1.864v-.568q0-.297-.052-.621-.419-4.971-.799-9.051-.38-4.08-.656-6.997l-.432-4.593q-.157-1.676-.157-1.946Z"/><path d="M141.154 119.764q.76-1.351 1.494-1.351.419 0 .76.432t.76 1.351q.393 1.243.564 2.026.17.784.17 1.54 0 1.621-.786 3.08-1.259 2.162-2.726 3.864-1.468 1.702-3.067 2.891-1.599 1.188-3.303 1.81-1.703.621-3.381.621-2.123 0-3.984-1.108-1.861-1.107-3.316-3.161-1.455-2.053-2.451-4.944t-1.415-6.511q-.236-1.513-.432-1.972-.197-.46-.643-.46-.969 0-1.494-.972-.524-.973-.524-2.81 0-.756.052-.973l.053-1.08q.131-1.946.511-2.81.38-.865 1.193-.865h.393q1.101 0 1.546-2.107.813-3.728 2.071-6.808 1.258-3.08 2.831-5.269 1.572-2.188 3.368-3.404 1.795-1.216 3.656-1.216 1.94 0 3.631 1.162 1.69 1.162 2.948 3.215 1.259 2.053 1.979 4.809.721 2.756.721 5.944 0 2.215-.419 4.053-.42 1.837-1.206 3.215t-1.9 2.242q-1.114.865-2.53 1.135l-9.095 1.891q-.524 0-.852.54-.327.541-.327 1.459 0 1.405.511 2.702t1.363 2.297q.852.999 1.966 1.594 1.114.594 2.293.594 1.127 0 2.32-.459 1.192-.46 2.359-1.324 1.166-.865 2.267-2.081 1.101-1.215 2.071-2.782Z" fill="#00F"/><path d="M135.309 105.823q.393-.162.681-.784.288-.621.288-1.54 0-.81-.288-1.513-.288-.702-.786-1.27-.498-.567-1.154-.891-.655-.324-1.389-.324-1.074 0-2.202.648-1.127.649-2.044 1.702-.917 1.054-1.494 2.324-.577 1.27-.577 2.512 0 1.243.734 1.243.446 0 1.442-.216t2.202-.513q1.205-.298 2.437-.676 1.232-.378 2.15-.702Z" fill="#FFF"/><path d="M162.857 90.639q0-.594-.131-1.783t-.315-2.729q-.183-1.54-.419-3.296-.236-1.756-.42-3.431-.183-1.675-.314-3.134-.131-1.459-.131-2.432 0-1.243.34-2.026.341-.784.865-1.216.525-.432 1.127-.594.603-.162 1.154-.162.681 0 1.323.783.643.784.879 2.783.288 2.107.484 4.242.197 2.134.354 4.16.158 2.027.302 3.918t.301 3.512q.157 1.297.406 2.053.249.757.603 1.162.354.405.76.514.407.108.878.108.525 0 1.128-.217.602-.216 1.179-.216.367 0 .721.243.354.244.642.865.288.621.459 1.702.17 1.081.17 2.756 0 1.405-.262 2.35-.262.946-.996 1.27l-.944.432q-.445.163-.825.244-.38.081-.957.189-1.232.27-1.232 2.215 0 .162.105 1.459.105 1.297.275 3.215.171 1.918.38 4.215.21 2.296.407 4.404.196 2.107.353 3.755.158 1.648.236 2.351.131 1.188.21 1.837.079.648.079 1.783 0 .864-.236 1.702t-.695 1.486q-.459.648-1.114 1.054-.655.405-1.494.405-.917 0-1.324-1.162-.406-1.162-.563-2.675-.341-2.809-.642-5.781-.302-2.972-.577-5.89-.275-2.918-.524-5.701-.249-2.782-.459-5.322-.131-1.189-.472-1.756-.34-.568-.865-.568-1.782 0-3.578.244-1.795.243-3.525.405-.603.108-.944.81-.34.703-.34 1.838 0 2.539.026 5.025.026 2.485.026 5.079 0 2.972-.039 6.106t-.118 6.052q-.053 1.08-.302 1.783-.249.702-.629 1.135-.38.432-.865.594-.485.162-.983.162-1.231 0-1.913-.837-.681-.838-.681-2.837 0-3.026.078-6.322.079-3.296.079-6.647 0-2.269-.026-4.403-.027-2.135-.027-4.404 0-1.027-.222-1.54-.223-.513-.538-.838-.314-.324-.707-.621-.394-.297-.708-.892-.315-.594-.537-1.729-.223-1.134-.223-3.134 0-1.08.196-1.702.197-.621.498-.999.302-.379.643-.622.34-.243.642-.621.301-.379.498-.946.196-.567.196-1.648 0-.648-.026-1.54t-.052-1.702q-.027-.811-.053-1.432-.026-.621-.026-.837 0-1.838.249-2.945.249-1.108.616-1.675.367-.568.826-.757.458-.189.878-.189 1.572 0 2.188 1.216.616 1.216.669 3.539l.105 5.674q.052 1.296.34 1.972.289.675.944.675l5.95-.432q.76-.108.983-.864.223-.757.223-2.27Z" fill="red"/><path d="M193.655 84.371q1.442 0 2.778.919 1.337.918 2.359 2.539 1.023 1.621 1.639 3.891.615 2.269.615 5.025 0 1.135-.249 2.188-.249 1.054-.668 1.838-.419.783-.957 1.242-.537.46-1.114.46-.052 0-.091.027-.04.027-.092.027-.053.054-.105.054l.105 4.322q.105 7.727 1.061 11.294.957 3.566 2.504 3.566.55 0 .983-.216.432-.216.812-.513.38-.298.721-.514.341-.216.681-.216.603 0 1.062 1.081.459 1.08.459 2.593t-.564 3.026q-.563 1.513-1.481 2.729-.917 1.216-2.071 1.972-1.153.757-2.332.757-2.045 0-3.591-3.485-1.547-3.486-2.202-10.24-.157-1.081-.419-1.081-.315 0-.551.649-2.595 6.754-5.53 10.131-2.936 3.377-5.793 3.377-1.337 0-2.412-.81-1.074-.811-1.821-2.297-.747-1.486-1.154-3.62-.406-2.134-.406-4.782 0-3.728.8-7.835.799-4.107 2.162-8.105 1.363-3.999 3.159-7.619 1.795-3.62 3.774-6.376 1.979-2.756 4.023-4.377 2.045-1.621 3.906-1.621Z" fill="#FF0"/><path d="M192.79 103.067q.472-1.837.865-2.675.393-.837 1.127-1.107.577-.163.577-.757 0-.432-.158-.918-.498-1.405-1.048-2.459-.551-1.054-1.468-1.054-.996 0-2.228 1.189-1.232 1.189-2.503 3.161-1.271 1.972-2.49 4.485-1.219 2.513-2.163 5.16-.943 2.648-1.52 5.242-.576 2.593-.576 4.647 0 1.837.484 2.863.485 1.027 1.324 1.027 2.149 0 4.692-4.701 2.542-4.701 5.085-14.103Z" fill="#FFF"/><path d="M221.203 91.179q-.97 0-1.704 1.054t-1.258 2.918q-.524 1.864-.865 4.377-.341 2.512-.55 5.484-.21 2.972-.289 6.214-.078 3.242-.078 6.538 0 4.323.17 8.511.17 4.188.17 7.754 0 2.323-.838 3.647-.839 1.324-2.386 1.324-.288 0-.655-.108-.367-.108-.694-.432-.328-.325-.577-.892-.249-.567-.275-1.54-.236-4.755-.682-9.726-.445-4.971-1.114-9.915-.668-4.945-1.599-9.808-.93-4.863-2.136-9.51-.21-.81-.354-1.513-.144-.702-.144-1.351 0-.81.354-1.756.354-.945.891-1.756.537-.81 1.18-1.324.642-.513 1.245-.513.996 0 1.756 2.837t1.415 9.051q.131 1.08.21 1.512.079.433.21.433.288 0 .367-1.837.314-5.134 1.074-8.835.76-3.701 1.901-6.106 1.14-2.405 2.621-3.539 1.481-1.135 3.263-1.135 1.022 0 2.071.378 1.048.379 1.887 1.135t1.363 1.837q.524 1.081.524 2.432 0 .972-.196 2.296-.197 1.324-.512 2.54-.314 1.216-.72 2.053-.407.838-.826.838-.472 0-.917-.568l-.957-1.215q-.511-.649-1.075-1.216-.563-.568-1.271-.568Z" fill="#0F0"/><path d="M226.34 113.658q0-.919.105-2.054.105-1.134.105-2.485 0-.919-.38-1.405t-.852-1.081q-.472-.594-.852-1.513-.38-.918-.38-2.647 0-1.243.328-2.486.327-1.243.957-2.269 1.546-2.378 3.21-4.269 1.665-1.891 3.329-3.188 1.665-1.297 3.29-1.999 1.625-.703 3.119-.703 2.516 0 4.731 1.918 2.215 1.919 3.853 5.242 1.638 3.323 2.595 7.781.957 4.457.957 9.537 0 4.971-1.009 9.429-1.01 4.458-2.713 7.808-1.704 3.35-3.997 5.322-2.294 1.972-4.836 1.972-2.491 0-4.614-1.729-2.123-1.729-3.669-4.782-1.547-3.053-2.412-7.24-.865-4.188-.865-9.159Z"/><path d="M238.476 126.842q1.101 0 2.281-.918 1.179-.919 2.162-2.675.983-1.756 1.625-4.296.642-2.539.642-5.727 0-3.243-.576-6.052-.577-2.81-1.586-4.89-1.009-2.081-2.385-3.27-1.376-1.188-2.975-1.188-2.91 0-4.456 3.107-1.547 3.107-1.547 9.537 0 3.512.511 6.511t1.429 5.187q.917 2.189 2.162 3.431 1.245 1.243 2.713 1.243Z" fill="#FFF"/><path d="M252.447 70.052q0-2.81.786-3.999.786-1.188 2.595-1.188.629 0 1.101.27t.786.891q.315.622.511 1.675.197 1.054.328 2.675.341 4.809.695 10.078.353 5.268.681 10.482.328 5.215.616 10.159.288 4.944.511 9.186.223 4.241.341 7.51.118 3.27.118 5.161 0 1.945-.17 3.296-.171 1.351-.577 2.161-.406.811-1.049 1.162-.642.351-1.585.351-.918 0-1.455-.972-.537-.973-.537-2.972 0-2.054-.158-5.485-.157-3.431-.419-7.646-.262-4.214-.59-8.969-.327-4.756-.681-9.402l-.682-8.943q-.327-4.296-.59-7.619-.262-3.323-.419-5.458-.157-2.134-.157-2.404Z" fill="#00F"/><path d="M283.219 92.098q.105.108.314.108.577 0 .577-1.567V73.834q0-3.188.695-4.539.694-1.35 2.319-1.35 1.652 0 2.333 1.404.682 1.405.682 4.81 0 1.296-.079 3.809t-.17 5.701q-.092 3.188-.171 6.835-.078 3.647-.078 7.214 0 5.511.367 9.51.367 3.998 1.048 6.619.681 2.621 1.625 3.89.944 1.27 2.123 1.27.655 0 1.193-.351.537-.351 1.271-.351.524 0 .878 1.107.354 1.108.354 2.675 0 1.405-.406 2.648-.407 1.243-1.101 2.161-.695.919-1.612 1.432-.918.513-1.914.513-2.149 0-3.931-2.728-1.783-2.729-2.674-8.349-.078-.864-.262-.864-.21 0-.341.864-.707 3.945-1.848 7.106-1.14 3.161-2.647 5.403-1.507 2.243-3.303 3.432-1.795 1.188-3.787 1.188-2.097 0-3.84-1.432-1.743-1.431-3.001-3.998-1.258-2.567-1.966-6.052-.708-3.485-.708-7.538 0-5.187 1.049-9.78 1.048-4.593 2.844-8.024 1.795-3.431 4.18-5.431 2.386-1.999 5.085-1.999 1.101 0 2.333.351 1.232.351 2.569 1.108Z" fill="#980000"/><path d="M275.696 125.167q1.494 0 2.661-1.351 1.166-1.351 2.07-3.431.905-2.08 1.534-4.593.629-2.512 1.022-4.89.393-2.378.577-4.269.183-1.891.183-2.701 0-.595-.157-1.054-.157-.459-.472-.73-.708-.378-1.468-.675-.76-.297-1.494-.513-.734-.216-1.402-.325-.669-.108-1.219-.108-1.573 0-2.857.973-1.284.973-2.189 2.756-.904 1.783-1.402 4.241-.498 2.459-.498 5.377 0 2.594.38 4.674.38 2.08 1.049 3.539.668 1.459 1.611 2.27.944.81 2.071.81Z" fill="#FFF"/></g></svg>